<svg xmlns="http://www.w3.org/2000/svg" viewBox="0 0 64 64">
  <circle cx="32" cy="32" r="30" fill="none" stroke="#5b6b85" stroke-width="2" opacity="0.35"/>
  <circle cx="32" cy="30" r="18" fill="#c7d0de" stroke="#4a5872" stroke-width="2"/>
  <path fill="#4a5872" d="M32 20C31 20 30 20.7 29.8 21.6L29.3 24C28.4 24.3 27.6 24.8 26.9 25.3L24.5 24.4C23.6 24.1 22.6 24.4 22.1 25.3L20.9 27.4C20.4 28.2 20.6 29.3 21.4 29.9L23.3 31.4C23.2 31.9 23.2 32.5 23.3 33L21.4 34.5C20.6 35.1 20.4 36.2 20.9 37L22.1 39.1C22.6 40 23.6 40.3 24.5 40L26.9 39.1C27.6 39.6 28.4 40.1 29.3 40.4L29.8 42.8C30 43.7 31 44.4 32 44.4 33 44.4 34 43.7 34.2 42.8L34.7 40.4C35.6 40.1 36.4 39.6 37.1 39.1L39.5 40C40.4 40.3 41.4 40 41.9 39.1L43.1 37C43.6 36.2 43.4 35.1 42.6 34.5L40.7 33C40.8 32.5 40.8 31.9 40.7 31.4L42.6 29.9C43.4 29.3 43.6 28.2 43.1 27.4L41.9 25.3C41.4 24.4 40.4 24.1 39.5 24.4L37.1 25.3C36.4 24.8 35.6 24.3 34.7 24L34.2 21.6C34 20.7 33 20 32 20Z"/>
  <circle cx="32" cy="32" r="5.5" fill="#c7d0de"/>
  <path fill="#7d8ba3" d="M22 46 42 46 44 52 20 52Z"/>
</svg>
