<svg xmlns="http://www.w3.org/2000/svg" viewBox="0 0 64 64">
  <circle cx="32" cy="32" r="30" fill="none" stroke="#e0a800" stroke-width="2" opacity="0.4"/>
  <path fill="#ffc400" stroke="#a67c00" stroke-width="2" stroke-linejoin="round"
    d="M16 44C16 38 20 33 20 27V18H30V29C30 29 33 27 37 27C43 27 46 31 49 33C51 34.5 52 37 52 40V44C52 46.2 50.2 48 48 48H18C16.9 48 16 47.1 16 46Z"/>
  <rect x="20" y="18" width="10" height="6" rx="1.5" fill="#fff2b0" stroke="#a67c00" stroke-width="1.6"/>
  <path fill="none" stroke="#a67c00" stroke-width="1.6" stroke-linecap="round" d="M35 32 38.5 35.5M39 30.5 42.5 34"/>
  <path fill="#a67c00" d="M16 44H52V48C52 48 48 46 44 46 40 46 40 48 36 48 32 48 32 46 28 46 24 46 24 48 20 48 18 48 16 46.5 16 44Z" opacity="0.5"/>
</svg>
