<svg xmlns="http://www.w3.org/2000/svg" viewBox="0 0 64 64">
  <circle cx="32" cy="32" r="30" fill="none" stroke="#b8903a" stroke-width="2" opacity="0.35"/>
  <rect x="26" y="46" width="12" height="4" fill="#8a6a1f"/>
  <rect x="20" y="50" width="24" height="4" rx="1.5" fill="#e0b84d" stroke="#8a6a1f" stroke-width="1.6"/>
  <rect x="29" y="38" width="6" height="10" fill="#e0b84d" stroke="#8a6a1f" stroke-width="1.6"/>
  <path fill="#e0b84d" stroke="#8a6a1f" stroke-width="2" stroke-linejoin="round"
    d="M20 14H44V26C44 34 38.6 40 32 40 25.4 40 20 34 20 26Z"/>
  <path fill="none" stroke="#8a6a1f" stroke-width="2.4" stroke-linecap="round"
    d="M20 16C14 16 12 20 12 23 12 27 16 30 21 29"/>
  <path fill="none" stroke="#8a6a1f" stroke-width="2.4" stroke-linecap="round"
    d="M44 16C50 16 52 20 52 23 52 27 48 30 43 29"/>
  <path fill="#f5dfa0" d="M24 17H40V21H24Z" opacity="0.7"/>
</svg>
